<svg xmlns="http://www.w3.org/2000/svg" fill="none" viewBox="0 0 160 160">
  <path fill="#000" d="M21.45 63.253c-1.55-.54-1.56-1.82-1.28-3.68.19-1.23.25-1.8-.41-2-.66-.2-1.1-.06-1.49 1.05-.45 1.28-.19 1.79.76 2.2l-.39 1.11c-1.27-.52-2-1.69-1.28-3.67.44-1.27 1.37-2.27 3.02-1.66l3.24 1.14c.53.18.82.2.91-.07a.764.764 0 0 0 0-.16l.74.26a2.193 2.193 0 0 1-.12.54c-.2.58-.55.86-1.41.63a2.64 2.64 0 0 1 .36 2.73 2.072 2.072 0 0 1-2.65 1.58Zm.72-4.86-1.07-.4a4 4 0 0 1 0 1.77c-.19 1.41-.08 2.07.7 2.34.78.27 1.17 0 1.47-.85.43-1.26.2-2.41-1.1-2.86Zm3.43-3.4.82.42-.51 1-8.91-4.56.51-1 3.34 1.71a2.701 2.701 0 0 1 .06-2.49c.82-1.6 2.73-2.22 4.82-1.15 2.09 1.07 2.71 3 1.89 4.58a2.55 2.55 0 0 1-2 1.49h-.02Zm-2.36-1.2c1.5.76 2.86.53 3.47-.65.61-1.18-.25-2.56-1.5-3.15-1.25-.59-2.79-.66-3.46.65-.67 1.31 0 2.35 1.49 3.15Zm3.37-6.341c-1.82-1.27-2.34-3.24-1.09-5 1.25-1.76 3.27-2 5.09-.69 1.82 1.31 2.35 3.24 1.1 5-1.25 1.76-3.28 1.97-5.1.69Zm3.33-4.76c-1.25-.87-2.7-1-3.62.29-.92 1.29-.29 2.64 1 3.51 1.29.87 2.71 1 3.63-.3.92-1.3.24-2.62-1.01-3.5Zm5.78-2.53a1.921 1.921 0 0 0 0-2.84l-3.28-3 .76-.83 5.25 4.84-.76.83-.63-.58a2.85 2.85 0 0 1-.81 2.41 2.191 2.191 0 0 1-3.35.17l-3.67-3.38.77-.79 3.46 3.19a1.46 1.46 0 0 0 2.26-.02Zm-.04-8.9-1.57-1.79.84-.74 1.57 1.79 1.05-.93.65.74-1.06.92 2.84 3.23c.5.57.76.6 1.24.18.144-.132.28-.272.41-.42l.63.72a4.545 4.545 0 0 1-.51.54c-.79.69-1.58.9-2.65-.32l-2.8-3.19-.79.69-.64-.69.79-.73Zm7.26-5.88 1-.56.42.74a2.48 2.48 0 0 1 1.27-1.95 1.82 1.82 0 0 1 2.27.13 2.78 2.78 0 0 1 1.39-2.21c1.26-.72 2.29-.33 3 1l2.48 4.33-1 .55-2.26-4.14c-.46-.8-1-1.34-1.95-.78a1.76 1.76 0 0 0-.63 2.55l2.21 3.86-1 .56-2.31-4.08c-.46-.8-1-1.34-1.95-.79a1.77 1.77 0 0 0-.63 2.56l2.21 3.84-1 .56-3.52-6.17Zm11.88-2.39c-.8-2.14 0-4 1.93-4.74a3.18 3.18 0 0 1 4.32 2.13c.069.174.129.35.18.53L56 22.862a2.338 2.338 0 0 0 3 1.55 2 2 0 0 0 1.42-2.07l1.13-.35a3.1 3.1 0 0 1-2.16 3.38c-2.11.74-3.82-.38-4.57-2.38Zm.86-1 4.13-1.54a2.081 2.081 0 0 0-2.81-1.29 2.2 2.2 0 0 0-1.32 2.83Zm82.69 75.61c1.54.54 1.55 1.82 1.27 3.68-.19 1.23-.24 1.8.42 2 .66.2 1.09.06 1.48-1 .45-1.28.2-1.79-.76-2.2l.39-1.11c1.27.53 2 1.69 1.28 3.67-.44 1.26-1.37 2.21-3 1.63l-3.24-1.14c-.53-.18-.82-.19-.91.07a.855.855 0 0 0 0 .16l-.74-.26c.018-.183.055-.364.11-.54.21-.58.56-.85 1.41-.63a2.678 2.678 0 0 1-.36-2.73 2.082 2.082 0 0 1 2.65-1.6Zm-.73 4.86 1.07.38a4.159 4.159 0 0 1 0-1.77c.18-1.41.07-2.07-.71-2.34s-1.16 0-1.47.85c-.42 1.27-.19 2.41 1.11 2.88Zm-3.43 3.4-.82-.42.51-1 8.91 4.55-.51 1-3.3-1.7a2.691 2.691 0 0 1-.06 2.49c-.82 1.6-2.73 2.22-4.82 1.15-2.09-1.07-2.7-3-1.89-4.58a2.566 2.566 0 0 1 2-1.49h-.02Zm2.36 1.2c-1.5-.76-2.86-.53-3.46.65-.6 1.18.25 2.56 1.49 3.19 1.24.63 2.8.66 3.47-.65.67-1.31-.01-2.42-1.5-3.19Zm-3.37 6.34c1.83 1.27 2.35 3.24 1.1 5-1.25 1.76-3.28 2-5.1.69-1.82-1.31-2.35-3.24-1.1-5 1.25-1.76 3.28-1.97 5.1-.69Zm-3.33 4.76c1.25.87 2.71 1 3.62-.29.91-1.29.29-2.64-1-3.51-1.29-.87-2.7-1-3.63.3-.93 1.3-.24 2.62 1.01 3.5Zm-5.78 2.53a1.922 1.922 0 0 0 0 2.84l3.27 3-.76.83-5.25-4.84.76-.83.63.58a2.812 2.812 0 0 1 .82-2.44 2.191 2.191 0 0 1 3.35-.17l3.67 3.38-.76.83-3.46-3.19a1.47 1.47 0 0 0-1.137-.536 1.461 1.461 0 0 0-1.133.546Zm.05 8.901 1.57 1.79-.85.74-1.56-1.79-1.06.93-.64-.74 1.05-.92-2.83-3.23c-.5-.57-.77-.6-1.24-.18-.15.13-.29.27-.42.42l-.62-.72c.152-.196.323-.377.51-.54.79-.69 1.57-.9 2.64.32l2.8 3.19.79-.69.65.73-.79.69Zm-7.26 5.889-1 .55-.42-.74a2.453 2.453 0 0 1-1.27 2 1.8 1.8 0 0 1-2.26-.13 2.783 2.783 0 0 1-1.39 2.21c-1.25.72-2.28.33-3-1l-2.54-4.32 1-.55 2.33 4.08c.46.8 1 1.34 2 .78a1.745 1.745 0 0 0 .897-1.13c.06-.241.069-.493.025-.738a1.772 1.772 0 0 0-.282-.682l-2.3-3.82 1-.56 2.33 4.04c.46.8 1 1.34 2 .79a1.773 1.773 0 0 0 .91-1.877 1.772 1.772 0 0 0-.28-.683l-2.22-3.86 1-.56 3.47 6.2Zm-11.88 2.39c.8 2.14 0 4-1.94 4.74a3.172 3.172 0 0 1-2.648-.075 3.185 3.185 0 0 1-1.672-2.055c-.07-.2-.15-.42-.18-.53l5.23-2a2.323 2.323 0 0 0-1.167-1.418 2.322 2.322 0 0 0-1.833-.132 1.998 1.998 0 0 0-1.43 2.07l-1.06.4a3.112 3.112 0 0 1 2.16-3.38c2.07-.75 3.78.35 4.54 2.38Zm-.87 1-4.13 1.58a2.086 2.086 0 0 0 1.949 1.405c.285.003.568-.053.831-.165a2.187 2.187 0 0 0 1.35-2.78v-.04Z"/>
  <path stroke="#000" stroke-opacity=".2" d="M69.06 17.957a63 63 0 0 1 73.327 70.81M90.94 142.043a63.002 63.002 0 0 1-73.327-70.81"/>
</svg>