<svg viewBox="0 0 24 24" fill="none" xmlns="http://www.w3.org/2000/svg">
  <g clipPath="url(#clip0_651_370)">
    <path fillRule="evenodd" clipRule="evenodd" d="M3.21951 0C2.36564 0 1.54675 0.339198 0.942973 0.942973C0.339198 1.54675 0 2.36564 0 3.21951C0 4.07338 0.339198 4.89228 0.942973 5.49605C1.54675 6.09983 2.36564 6.43902 3.21951 6.43902C4.07338 6.43902 4.89228 6.09983 5.49605 5.49605C6.09983 4.89228 6.43902 4.07338 6.43902 3.21951C6.43902 2.36564 6.09983 1.54675 5.49605 0.942973C4.89228 0.339198 4.07338 0 3.21951 0ZM1.7561 3.21951C1.7561 2.83139 1.91028 2.45917 2.18472 2.18472C2.45917 1.91028 2.83139 1.7561 3.21951 1.7561C3.60763 1.7561 3.97986 1.91028 4.2543 2.18472C4.52875 2.45917 4.68293 2.83139 4.68293 3.21951C4.68293 3.60763 4.52875 3.97986 4.2543 4.2543C3.97986 4.52875 3.60763 4.68293 3.21951 4.68293C2.83139 4.68293 2.45917 4.52875 2.18472 4.2543C1.91028 3.97986 1.7561 3.60763 1.7561 3.21951Z" fill="black"/>
    <path fillRule="evenodd" clipRule="evenodd" d="M0 7.90246C0 7.66959 0.0925083 7.44625 0.257174 7.28159C0.42184 7.11692 0.645176 7.02441 0.878049 7.02441H5.56098C5.79385 7.02441 6.01718 7.11692 6.18185 7.28159C6.34652 7.44625 6.43902 7.66959 6.43902 7.90246V23.122C6.43902 23.3548 6.34652 23.5782 6.18185 23.7428C6.01718 23.9075 5.79385 24 5.56098 24H0.878049C0.645176 24 0.42184 23.9075 0.257174 23.7428C0.0925083 23.5782 0 23.3548 0 23.122V7.90246ZM1.7561 8.78051V22.2439H4.68293V8.78051H1.7561Z" fill="black"/>
    <path fillRule="evenodd" clipRule="evenodd" d="M8.19531 7.90246C8.19531 7.66959 8.28782 7.44625 8.45249 7.28159C8.61715 7.11692 8.84049 7.02441 9.07336 7.02441H13.7563C13.9892 7.02441 14.2125 7.11692 14.3772 7.28159C14.5418 7.44625 14.6343 7.66959 14.6343 7.90246V8.41056L15.1436 8.19163C16.0217 7.81639 16.9532 7.58133 17.9042 7.49505C21.153 7.20002 24.0002 9.75222 24.0002 13.0303V23.122C24.0002 23.3548 23.9077 23.5782 23.743 23.7428C23.5784 23.9075 23.355 24 23.1221 24H18.4392C18.2063 24 17.983 23.9075 17.8183 23.7428C17.6537 23.5782 17.5612 23.3548 17.5612 23.122V14.9269C17.5612 14.5387 17.407 14.1665 17.1325 13.8921C16.8581 13.6176 16.4859 13.4634 16.0978 13.4634C15.7096 13.4634 15.3374 13.6176 15.063 13.8921C14.7885 14.1665 14.6343 14.5387 14.6343 14.9269V23.122C14.6343 23.3548 14.5418 23.5782 14.3772 23.7428C14.2125 23.9075 13.9892 24 13.7563 24H9.07336C8.84049 24 8.61715 23.9075 8.45249 23.7428C8.28782 23.5782 8.19531 23.3548 8.19531 23.122V7.90246ZM9.95141 8.78051V22.2439H12.8782V14.9269C12.8782 14.073 13.2174 13.2541 13.8212 12.6503C14.425 12.0465 15.2439 11.7073 16.0978 11.7073C16.9516 11.7073 17.7705 12.0465 18.3743 12.6503C18.9781 13.2541 19.3173 14.073 19.3173 14.9269V22.2439H22.2441V13.0303C22.2441 10.8012 20.2995 9.04041 18.0646 9.24412C17.2978 9.31437 16.5403 9.50402 15.8355 9.80607L14.1028 10.5495C13.9692 10.6069 13.8234 10.6302 13.6785 10.6173C13.5336 10.6044 13.3942 10.5557 13.2728 10.4757C13.1514 10.3956 13.0518 10.2866 12.9829 10.1585C12.914 10.0303 12.8781 9.88713 12.8782 9.74168V8.78051H9.95141Z" fill="black"/>
  </g>
  <defs>
    <clipPath id="clip0_651_370">
      <rect width="24" height="24" fill="white" />
    </clipPath>
  </defs>
</svg>