<svg xmlns="http://www.w3.org/2000/svg" xml:space="preserve" viewBox="0 0 502 502">
  <path fill="#ff1d25" d="M371 50a121 121 0 0 0-120 105.3A121 121 0 0 0 10 171c0 66.8 80.3 135.5 116.5 166.6C160.2 366.6 251 452 251 452s90.8-85.4 124.5-114.4C411.8 306.6 492 237.8 492 171S437.8 50 371 50z"/>
  <path d="M251 462c-2.5 0-5-.9-6.9-2.7-.9-.9-91-85.6-124.2-114.1l-.3-.3C80.8 311.5 0 242.2 0 171a131.2 131.2 0 0 1 251-52.6A131.2 131.2 0 0 1 502 171c0 71.2-80.8 140.5-119.6 173.9l-.3.3a6127.1 6127.1 0 0 0-124.2 114 10 10 0 0 1-6.9 2.8zM131 60C69.8 60 20 109.8 20 171c0 62 79 129.8 112.6 158.7l.4.3a5492 5492 0 0 1 118 108.3A5492 5492 0 0 1 369 330l.4-.3C403 300.7 482 233 482 171a111.1 111.1 0 0 0-221-14.4 10 10 0 0 1-20 0c-7-55-54.4-96.6-110-96.6z"/>
  <path d="M252 412a10 10 0 0 1-6.8-2.7c-27-25.1-75.5-70.2-98-89.4l-.2-.3-12.7-11a10 10 0 1 1 13.2-15l12.5 10.8.3.3c21.6 18.5 65.5 59.2 98.5 90A10 10 0 0 1 252 412zM113.3 285.8c-2.5 0-5-1-7-2.8a505.9 505.9 0 0 1-18.6-19 10 10 0 1 1 14.7-13.6c5.5 6 11.5 12 17.9 18.2a10 10 0 0 1-7 17.2z"/>
</svg>